<svg width="40" height="46" viewBox="0 0 40 46" fill="none" xmlns="http://www.w3.org/2000/svg">
<path fill-rule="evenodd" clip-rule="evenodd" d="M2.1176 16.7044L2.11754 31.5C2.11754 35.0259 1.57753 37.0127 2.87604 39.9647C5.13535 45.1024 14.918 45.2971 16.9023 40.7607C17.3961 39.6314 17.5862 34.2173 17.5862 32.3472C18.8213 32.6653 26.5097 39.4045 28.0424 40.7211C29.0615 41.5968 30.5009 42.9422 31.535 43.6099C32.1902 43.1869 34.5407 40.7163 34.7786 39.8557C33.6054 39.5534 33.7621 39.2841 32.9063 38.5332C32.1764 37.8932 31.886 37.8355 31.1258 37.122C29.2389 35.3502 21.709 29.5462 20.8302 28.2798C28.5653 28.2798 32.8231 26.1316 32.8231 19.4785C32.8231 16.4419 33.841 17.33 38.0226 17.33C38.7581 17.33 39.0223 12.9502 37.0495 12.9502H14.6666C13.3123 12.9502 13.6934 14.0358 13.6934 16.7044C13.6934 19.6518 27.9664 15.8716 27.9664 19.8328C27.9664 26.6318 16.4122 21.5075 13.5865 24.4226C12.039 26.0192 12.5875 29.8878 12.5835 32.5278C12.5755 37.8557 13.7938 39.543 10.1253 39.543C7.22453 39.543 6.88125 36.6427 6.88125 34.5372V15.4529C6.88125 5.99632 10.038 6.69286 18.2352 6.69286C23.306 6.69286 34.7414 7.26296 38.6713 6.37985C38.6713 4.9488 39.2621 2 37.6982 2H12.3961C8.5188 2 5.53998 4.04006 3.90735 6.32739C1.31432 9.95904 2.1176 11.781 2.1176 16.7044Z" fill="#2B966F"/>
</svg>
